# AST/ASF file generated using VICON BodyLanguage
# -----------------------------------------------
:version 1.10
:name VICON
:units
  mass 1.0
  length 0.45
  angle deg
:documentation
   .ast/.asf automatically generated from VICON data using
   VICON BodyBuilder and BodyLanguage model FoxedUp or BRILLIANT.MOD
:root
   order TX TY TZ RX RY RZ
   axis XYZ
   position 0 0 0  
   orientation 0 0 0 
:bonedata
  begin
     id 1 
     name lhipjoint
     direction 0.643824 -0.71708 0.266994 
     length 2.52133 
     axis 0 0 0  XYZ
  end
  begin
     id 2 
     name lfemur
     direction 0.34202 -0.939693 0  
     length 7.51824  
     axis 0 0 20  XYZ
    dof rx ry rz
    limits (-160.0 20.0)
           (-70.0 70.0)
           (-60.0 70.0)
  end
  begin
     id 3 
     name ltibia
     direction 0.34202 -0.939693 0   
     length 7.3685   
     axis 0 0 20   XYZ
    dof rx
    limits (-10.0 170.0)
  end
  begin
     id 4 
     name lfoot
     direction 0.105419 -0.289636 0.951314   
     length 2.20972   
     axis -90 7.62852e-016 20   XYZ
    dof rx rz
    limits (-45.0 90.0)
           (-70.0 20.0)
  end
  begin
     id 5 
     name ltoes
     direction 1.53549e-011 -4.21833e-011 1   
     length 1.10139   
     axis -90 7.62852e-016 20   XYZ
    dof rx
    limits (-90.0 20.0)
  end
  begin
     id 6 
     name rhipjoint
     direction -0.608823 -0.743445 0.276811   
     length 2.43192  
     axis 0 0 0  XYZ 
  end
  begin
     id 7 
     name rfemur
     direction -0.34202 -0.939693 0   
     length 7.69715   
     axis 0 0 -20   XYZ
    dof rx ry rz
    limits (-160.0 20.0)
           (-70.0 70.0)
           (-70.0 60.0)
  end
  begin
     id 8 
     name rtibia
     direction -0.34202 -0.939693 0   
     length 7.44924   
     axis 0 0 -20   XYZ
    dof rx
    limits (-10.0 170.0)
 end
 begin
     id 9 
     name rfoot
     direction -0.103614 -0.284677 0.953007   
     length 2.22623  
     axis -90 -7.62852e-016 -20   XYZ
    dof rx rz
    limits (-45.0 90.0)
           (-20.0 70.0)
  end
  begin
     id 10 
     name rtoes
     direction -1.53537e-011 -4.22026e-011 1   
     length 1.11   
     axis -90 -7.62852e-016 -20   XYZ
    dof rx
    limits (-90.0 20.0)
  end
  begin
     id 11 
     name lowerback
     direction -0.0101212 0.99662 -0.0815298   
     length 2.08277   
     axis 0 0 0   XYZ
    dof rx ry rz
    limits (-20.0 45.0)
           (-30.0 30.0)
           (-30.0 30.0)
  end
  begin
     id 12 
     name upperback
     direction 0.024314 0.999591 -0.0150645   
     length 2.08524   
     axis 0 0 0   XYZ
    dof rx ry rz
    limits (-20.0 45.0)
           (-30.0 30.0)
           (-30.0 30.0)
  end
  begin
     id 13 
     name thorax
     direction 0.0285959 0.999323 0.0231357   
     length 2.09645   
     axis 0 0 0   XYZ
    dof rx ry rz
    limits (-20.0 45.0)
           (-30.0 30.0)
           (-30.0 30.0)
  end
  begin
     id 14 
     name lowerneck
     direction -0.065512 0.979301 0.191515   
     length 1.63798   
     axis 0 0 0   XYZ
    dof rx ry rz
    limits (-20.0 45.0)
           (-30.0 30.0)
           (-30.0 30.0)
  end
  begin
     id 15 
     name upperneck
     direction 0.0498479 0.98191 -0.182667   
     length 1.68731   
     axis 0 0 0   XYZ
    dof rx ry rz
    limits (-20.0 45.0)
           (-30.0 30.0)
           (-30.0 30.0)
  end
  begin
     id 16
     name head
     direction 0.0230358 0.996257 -0.0833175  
     length 1.69785  
     axis 0 0 0   XYZ
    dof rx ry rz
    limits (-20.0 45.0)
           (-30.0 30.0)
           (-30.0 30.0)
  end
  begin
     id 17 
     name lclavicle
     direction 0.967963 0.201165 -0.150269  
     length 3.63976  
     axis 0 0 0   XYZ
    dof ry rz
    limits (-20.0 10.0)
           (0.0 20.0)
  end
  begin
     id 18 
     name lhumerus
     direction 1 -4.48954e-011 -2.92837e-028   
     length 5.32462   
     axis 180 -30 -90   XYZ
    dof rx ry rz
    limits (-60.0 90.0)
           (-90.0 90.0)
           (-90.0 90.0)
  end
  begin
     id 19
     name lradius
     direction 1 -4.48958e-011 -6.39511e-027   
     length 3.48402   
     axis 180 -30 -90   XYZ
    dof rx
    limits (-10.0 170.0)
  end
  begin
     id 20
     name lwrist
     direction 1 -4.48975e-011 -1.1413e-026   
     length 1.74201   
     axis 6.88575e-015 90 90   XYZ
    dof ry
    limits (-180.0 0.0)
 end
  begin
     id 21 
     name lhand
     direction 1 -4.48899e-011 -2.28192e-026   
     length 0.572476   
     axis 1.45643e-014 90 90   XYZ
    dof rx rz
    limits (-90.0 90.0)
           (-45.0 45.0)
  end
  begin
     id 22 
     name lfingers
     direction 1 -4.49155e-011 -4.5684e-026   
     length 0.461545   
     axis 2.91283e-014 90 90   XYZ
    dof rx
    limits (0.0 90.0)
  end
  begin
     id 23
     name lthumb
     direction 0.707107 -6.34943e-011 0.707107   
     length 0.662688   
     axis -90 45 -2.25915e-014   XYZ
    dof rx rz
    limits (-45.0 45.0)
           (-45.0 45.0)
  end
  begin
     id 24 
     name rclavicle
     direction -0.964103 0.264019 -0.0282629   
     length 3.54491  
     axis 0 0 0   XYZ 
    dof ry rz
    limits (-10.0 20.0)
           (-20.0 0.0)
  end
  begin
     id 25 
     name rhumerus
     direction -1 -4.48964e-011 -2.45032e-027  
     length 5.33589   
     axis 180 30 90   XYZ
    dof rx ry rz
    limits (-90.0 60.0)
           (-90.0 90.0)
           (-90.0 90.0)
  end
  begin
     id 26 
     name rradius
     direction -1 -4.48987e-011 -1.55093e-027   
     length 3.64134   
     axis 180 30 90   XYZ
    dof rx
    limits (-10.0 170.0)
  end
  begin
     id 27 
     name rwrist
     direction -1 -4.4897e-011 -1.14128e-026   
     length 1.82067   
     axis 6.88575e-015 -90 -90   XYZ
    dof ry
    limits (-180.0 0.0)
  end
  begin
     id 28
     name rhand
     direction -1 -4.49021e-011 -2.28301e-026   
     length 0.734811   
     axis 1.45643e-014 -90 -90   XYZ
    dof rx rz
    limits (-90.0 90.0)
           (-45.0 45.0)
  end
  begin
     id 29
     name rfingers
     direction -1 -4.48862e-011 -4.56319e-026   
     length 0.592424   
     axis 2.91283e-014 -90 -90   XYZ
    dof rx
    limits (0.0 90.0)
  end
  begin
     id 30
     name rthumb
     direction -0.707107 -6.34978e-011 0.707107   
     length 0.850605   
     axis -90 -45 2.25915e-014   XYZ
    dof rx rz
    limits (-45.0 45.0)
           (-45.0 45.0)
  end
:hierarchy
  begin
    root lhipjoint rhipjoint lowerback
    lhipjoint lfemur
    lfemur ltibia
    ltibia lfoot
    lfoot ltoes
    rhipjoint rfemur
    rfemur rtibia
    rtibia rfoot
    rfoot rtoes
    lowerback upperback
    upperback thorax
    thorax lowerneck lclavicle rclavicle
    lowerneck upperneck
    upperneck head
    lclavicle lhumerus
    lhumerus lradius
    lradius lwrist
    lwrist lhand lthumb
    lhand lfingers
    rclavicle rhumerus
    rhumerus rradius
    rradius rwrist
    rwrist rhand rthumb
    rhand rfingers
  end

#!OML:ASF F:\VICON\USERDATA\INSTALL\rory3\rory3.ASF
:FULLY-SPECIFIED
:DEGREES
232
root -6.09568 17.9392 -4.46497 5.94022 21.0456 2.61765
lowerback 3.41898 -3.0101 0.654718
upperback 0.920874 -3.90981 5.45713
thorax -0.626584 -1.95642 5.41949
lowerneck -19.0366 2.62511 -6.4576
upperneck 38.6527 6.74559 0.209732
head 17.1193 1.89848 2.58238
rclavicle -4.69132e-014 1.59028e-015
rhumerus -27.6815 -9.45451 -71.3219
rradius 34.5785
rwrist 14.6119
rhand -18.7237 -1.87736
rfingers 7.12502
rthumb 7.5718 -31.7218
lclavicle -4.69132e-014 1.59028e-015
lhumerus 22.0227 36.4548 54.9665
lradius 18.0663
lwrist -26.5863
lhand -23.8844 26.5585
lfingers 7.12502
lthumb 2.589 56.5225
rfemur -13.8695 4.10906 21.9967
rtibia 30.1925
rfoot -20.1731 -5.89525
rtoes 11.5856
lfemur -10.4295 -3.00282 -12.7364
ltibia 20.961
lfoot -5.5057 17.0633
ltoes -18.9933
233
root -6.09363 17.9391 -4.46606 5.94539 21.0949 2.64208
lowerback 3.49442 -3.02202 0.613823
upperback 0.9318 -3.92434 5.48094
thorax -0.6517 -1.96362 5.47245
lowerneck -18.9973 2.54697 -6.60373
upperneck 38.5944 6.66387 0.232396
head 17.0755 1.85051 2.59872
rclavicle 6.75868e-015 -3.81667e-014
rhumerus -27.7771 -9.43321 -71.205
rradius 35.0339
rwrist 14.4177
rhand -18.5713 -2.13279
rfingers 7.12502
rthumb 7.71893 -31.9719
lclavicle 6.75868e-015 -3.81667e-014
lhumerus 21.2836 35.1758 54.2306
lradius 18.7052
lwrist -25.1454
lhand -23.9934 27.061
lfingers 7.12502
lthumb 2.48371 57.0263
rfemur -13.8616 4.07812 21.9657
rtibia 30.1745
rfoot -20.2328 -5.9606
rtoes 11.447
lfemur -10.4628 -2.97998 -12.7606
ltibia 21.0202
lfoot -5.52541 16.9993
ltoes -18.977
234
root -6.09156 17.9403 -4.46684 5.93498 21.1125 2.56904
lowerback 3.52604 -3.01911 0.655504
upperback 0.948606 -3.91752 5.53101
thorax -0.651879 -1.96028 5.50271
lowerneck -18.8507 2.5311 -6.57639
upperneck 38.4813 6.65096 0.120093
head 16.9872 1.8414 2.53297
rclavicle 5.88403e-014 6.36111e-015
rhumerus -27.8527 -9.36032 -71.101
rradius 35.4705
rwrist 14.1504
rhand -18.6114 -2.40364
rfingers 7.12502
rthumb 7.6802 -32.2442
lclavicle 5.88403e-014 6.36111e-015
lhumerus 20.6318 34.137 53.6539
lradius 19.4109
lwrist -24.2657
lhand -23.6029 27.0056
lfingers 7.12502
lthumb 2.86086 56.9661
rfemur -13.8755 4.11454 22.0267
rtibia 30.1638
rfoot -20.2216 -6.01259
rtoes 11.6925
lfemur -10.518 -2.85892 -12.6947
ltibia 21.0844
lfoot -5.57134 16.908
ltoes -18.7455
235
root -6.08958 17.9385 -4.46926 5.92598 21.0978 2.51166
lowerback 3.62821 -3.00124 0.683733
upperback 0.930177 -3.88682 5.56535
thorax -0.730255 -1.9437 5.52907
lowerneck -18.7007 2.54574 -6.45994
upperneck 38.4467 6.66116 -0.00139875
head 16.9431 1.84988 2.45517
rclavicle -1.94809e-014 -1.27222e-014
rhumerus -27.9975 -9.16625 -71.0249
rradius 35.9608
rwrist 13.7235
rhand -18.807 -2.60231
rfingers 7.12502
rthumb 7.4914 -32.4497
lclavicle -1.94809e-014 -1.27222e-014
lhumerus 20.062 33.3665 53.199
lradius 20.1094
lwrist -24.0258
lhand -22.8184 26.611
lfingers 7.12502
lthumb 3.61852 56.5601
rfemur -13.9115 4.1608 22.0793
rtibia 30.1638
rfoot -20.1493 -6.07714
rtoes 11.5845
lfemur -10.5844 -2.78081 -12.6565
ltibia 21.144
lfoot -5.62663 16.897
ltoes -18.5345
236
root -6.08709 17.9369 -4.47543 5.90313 21.1046 2.49067
lowerback 3.81617 -3.00358 0.712637
upperback 0.916073 -3.87976 5.58222
thorax -0.851298 -1.93842 5.54273
lowerneck -18.7223 2.54086 -6.45326
upperneck 38.5041 6.67676 -0.0451127
head 16.9826 1.84747 2.44022
rclavicle -7.55382e-015 8.11041e-014
rhumerus -28.114 -8.91576 -70.958
rradius 36.5347
rwrist 13.3561
rhand -18.9799 -2.82006
rfingers 7.12502
rthumb 7.3246 -32.6733
lclavicle -7.55382e-015 8.11041e-014
lhumerus 19.2511 32.0242 52.3963
lradius 20.9234
lwrist -22.8722
lhand -22.7481 26.5981
lfingers 7.12502
lthumb 3.68638 56.546
rfemur -13.9338 4.2197 22.0934
rtibia 30.1664
rfoot -20.1412 -6.1748
rtoes 11.4028
lfemur -10.6297 -2.7341 -12.6641
ltibia 21.2048
lfoot -5.71199 16.9078
ltoes -18.4169
237
root -6.08172 17.9384 -4.48046 5.95109 21.1563 2.52317
lowerback 3.83771 -3.00178 0.723196
upperback 0.958699 -3.87792 5.58027
thorax -0.820375 -1.93818 5.53437
lowerneck -18.8275 2.48773 -6.48653
upperneck 38.5263 6.62198 -0.0483803
head 17.0232 1.81612 2.43836
rclavicle -2.22639e-014 -2.54444e-014
rhumerus -28.2223 -8.62331 -70.8991
rradius 37.3016
rwrist 12.9429
rhand -19.0509 -2.97064
rfingers 7.12502
rthumb 7.25599 -32.8262
lclavicle -2.22639e-014 -2.54444e-014
lhumerus 18.469 30.3711 51.5596
lradius 21.8611
lwrist -21.2601
lhand -23.2311 26.9079
lfingers 7.12502
lthumb 3.2199 56.8633
rfemur -13.995 4.1496 22.0331
rtibia 30.1791
rfoot -20.1733 -6.16366
rtoes 11.336
lfemur -10.7083 -2.72489 -12.7308
ltibia 21.2434
lfoot -5.72358 16.8959
ltoes -18.2187
238
root -6.07653 17.9386 -4.48183 5.97848 21.2251 2.51379
lowerback 3.77631 -2.98821 0.72516
upperback 1.04845 -3.86609 5.60661
thorax -0.692759 -1.9346 5.55325
lowerneck -18.8971 2.41091 -6.50883
upperneck 38.4529 6.52514 -0.0772845
head 17.0072 1.77082 2.411
rclavicle 0 9.54166e-015
rhumerus -28.3072 -8.34163 -70.8074
rradius 38.2251
rwrist 12.6233
rhand -19.0797 -3.03042
rfingers 7.12502
rthumb 7.22826 -32.887
lclavicle 0 9.54166e-015
lhumerus 17.8207 28.8974 50.9034
lradius 22.9057
lwrist -20.2443
lhand -23.4863 27.2859
lfingers 7.12502
lthumb 2.97345 57.2449
rfemur -14.0333 4.09822 22.0253
rtibia 30.198
rfoot -20.2106 -6.20158
rtoes 11.157
lfemur -10.763 -2.70985 -12.7495
ltibia 21.2601
lfoot -5.68473 16.872
ltoes -18.2056
239
root -6.07172 17.9398 -4.48199 5.97302 21.2842 2.49831
lowerback 3.74057 -2.97355 0.726447
upperback 1.14158 -3.8519 5.63796
thorax -0.57582 -1.92976 5.57931
lowerneck -18.858 2.35193 -6.51943
upperneck 38.2865 6.46543 -0.185049
head 16.9181 1.73767 2.3474
rclavicle 7.95139e-016 -1.90833e-014
rhumerus -28.4054 -8.0285 -70.7052
rradius 39.2191
rwrist 12.3344
rhand -19.3306 -3.13486
rfingers 7.12502
rthumb 6.98601 -32.9996
lclavicle 7.95139e-016 -1.90833e-014
lhumerus 17.367 27.9347 50.5164
lradius 23.8911
lwrist -20.0651
lhand -23.2157 27.2447
lfingers 7.12502
lthumb 3.23484 57.1999
rfemur -14.0323 4.06871 22.0319
rtibia 30.2281
rfoot -20.2363 -6.28871
rtoes 10.7437
lfemur -10.7799 -2.64577 -12.7602
ltibia 21.2739
lfoot -5.7838 16.8167
ltoes -18.0566
240
root -6.06648 17.9412 -4.48407 5.94418 21.3309 2.43947
lowerback 3.73753 -2.96243 0.774868
upperback 1.21094 -3.83797 5.67372
thorax -0.504502 -1.92407 5.58639
lowerneck -18.759 2.24376 -6.65617
upperneck 38.2024 6.31989 -0.148402
head 16.8484 1.66967 2.35435
rclavicle 2.78299e-015 7.63333e-014
rhumerus -28.5409 -7.71803 -70.5939
rradius 40.3002
rwrist 12.2963
rhand -19.9097 -2.82986
rfingers 7.12502
rthumb 6.42699 -32.7123
lclavicle 2.78299e-015 7.63333e-014
lhumerus 16.8178 26.8843 50.0606
lradius 24.9752
lwrist -19.7704
lhand -23.0135 26.781
lfingers 7.12502
lthumb 3.4301 56.7331
rfemur -14.0325 4.13364 22.0849
rtibia 30.2672
rfoot -20.2531 -6.43303
rtoes 10.8356
lfemur -10.804 -2.66529 -12.7307
ltibia 21.2865
lfoot -5.99716 16.9026
ltoes -17.2572
241
root -6.05955 17.9416 -4.487 5.97243 21.3903 2.40452
lowerback 3.65887 -2.96151 0.811826
upperback 1.28587 -3.84196 5.69965
thorax -0.383458 -1.92801 5.58533
lowerneck -18.7205 2.10448 -6.83402
upperneck 38.1565 6.1169 -0.0289364
head 16.8108 1.58088 2.39731
rclavicle -2.3059e-014 4.77083e-015
rhumerus -28.5372 -7.33835 -70.4965
rradius 41.4057
rwrist 12.2845
rhand -20.7303 -2.01785
rfingers 7.12502
rthumb 5.63477 -31.9229
lclavicle -2.3059e-014 4.77083e-015
lhumerus 16.1431 25.5298 49.4655
lradius 26.2774
lwrist -18.965
lhand -23.2974 26.9467
lfingers 7.12502
lthumb 3.15592 56.9031
rfemur -14.0929 4.13701 22.1032
rtibia 30.3223
rfoot -20.2803 -6.48355
rtoes 11.0347
lfemur -10.8772 -2.61973 -12.7429
ltibia 21.2805
lfoot -6.06888 16.9727
ltoes -16.7707
242
root -6.05063 17.9416 -4.49012 6.0031 21.4922 2.47525
lowerback 3.63944 -2.95662 0.799712
upperback 1.37473 -3.84144 5.6593
thorax -0.283032 -1.92955 5.54527
lowerneck -18.8314 2.0878 -6.66391
upperneck 38.0835 6.08196 -0.152154
head 16.8143 1.57401 2.30811
rclavicle 3.22031e-014 6.36111e-015
rhumerus -28.487 -7.03063 -70.4285
rradius 42.4433
rwrist 12.1461
rhand -21.32 -1.29024
rfingers 7.12502
rthumb 5.06541 -31.2097
lclavicle 3.22031e-014 6.36111e-015
lhumerus 15.568 24.2237 48.9077
lradius 27.6514
lwrist -18.3268
lhand -23.342 27.3036
lfingers 7.12502
lthumb 3.11283 57.2606
rfemur -14.1233 4.01513 22.0081
rtibia 30.3788
rfoot -20.3045 -6.49186
rtoes 11.2291
lfemur -10.9242 -2.57018 -12.8723
ltibia 21.3014
lfoot -6.07463 16.9548
ltoes -16.7921
